# xmcd
# 
# Track frame offsets:
#     150
#     7990
#     42353
#     58900
#     79813
#     98770
#     125420
#     146373
#     169840
#     188718
#     208923
#     228208
#     235718
#     254360
# 
# Disc length: 3876
# 
# Revision: 0
# Processed by: cddbd v1.5.2PL0 Copyright (c) Steve Scherf et al.
# Submitted via: fre:ac v1.0.31
# 
DISCID=b70f220e
DTITLE=Ankh - Ankh
DYEAR=1993
DGENRE=Rock
TTITLE0=Poczatek
TTITLE1=Hate and love
TTITLE2=Kraina Umarlych wg A. Vivaldi
TTITLE3=Wiara
TTITLE4=Bez imienia
TTITLE5=Sen
TTITLE6=Czekajac na slonce
TTITLE7=Nocne kwiaty
TTITLE8=Wg N. Paganini
TTITLE9=Chleb i krew
TTITLE10=Brama
TTITLE11=Koniec
TTITLE12=Ziemia
TTITLE13=Opowiesco drodze
EXTD=
EXTT0=\n
EXTT1=
EXTT2=
EXTT3=
EXTT4=
EXTT5=
EXTT6=
EXTT7=
EXTT8=
EXTT9=
EXTT10=
EXTT11=
EXTT12=
EXTT13=
PLAYORDER=
